<?xml version="1.0" standalone="no"?>
<!DOCTYPE svg PUBLIC "-//W3C//DTD SVG 20010904//EN"
 "http://www.w3.org/TR/2001/REC-SVG-20010904/DTD/svg10.dtd">
<svg version="1.0" xmlns="http://www.w3.org/2000/svg"
 width="626.000000pt" height="359.000000pt" viewBox="0 0 626.000000 359.000000"
 preserveAspectRatio="xMidYMid meet">
<metadata>
Created by potrace 1.16, written by Peter Selinger 2001-2019
</metadata>
<g transform="translate(0.000000,359.000000) scale(0.100000,-0.100000)"
fill="#000000" stroke="none">
<path d="M0 3295 c0 -172 4 -295 9 -295 5 0 76 13 158 29 160 31 847 163 1548
296 829 158 1080 206 1220 235 l140 28 -1537 1 -1538 1 0 -295z"/>
<path d="M3297 2635 c-331 -63 -544 -278 -638 -644 -31 -123 -54 -111 215
-111 l234 0 16 66 c19 75 62 166 101 213 58 68 176 108 268 90 23 -4 45 -8 49
-9 21 -1 79 -67 94 -106 13 -36 16 -65 12 -149 l-6 -105 233 0 233 0 6 33 c3
17 8 86 12 152 7 135 -7 228 -50 321 -48 104 -173 201 -311 239 -85 24 -363
30 -468 10z"/>
<path d="M1404 2632 c-200 -2 -202 -3 -207 -25 -26 -109 -186 -1021 -180
-1029 2 -5 101 -8 219 -8 l214 0 42 30 c54 40 126 60 209 60 79 0 113 -11 152
-48 63 -59 89 -159 67 -252 -9 -37 -25 -65 -61 -104 -55 -60 -102 -84 -187
-92 -138 -15 -252 46 -252 133 l0 40 -231 8 c-189 6 -233 4 -241 -7 -5 -7 -7
-69 -6 -138 3 -119 5 -129 36 -192 53 -109 133 -164 298 -210 69 -19 106 -21
289 -22 184 -1 220 2 295 21 166 42 281 111 377 224 110 131 164 287 166 484
2 131 -13 199 -60 287 -55 102 -189 199 -320 233 -114 30 -353 14 -459 -30
-36 -15 -36 -15 -31 8 3 12 13 68 23 125 l17 102 417 0 416 0 38 196 c20 108
36 197 34 199 -5 4 -860 10 -1074 7z"/>
<path d="M4560 2559 c-166 -10 -219 -65 -255 -267 -35 -193 2 -260 152 -277
135 -16 241 51 281 176 53 167 53 272 -2 324 -46 42 -79 51 -176 44z m34 -145
c9 -8 16 -31 16 -50 0 -53 -29 -171 -48 -193 -25 -30 -64 -36 -91 -14 -23 18
-23 21 -11 98 6 44 16 95 22 112 17 56 78 82 112 47z"/>
<path d="M5104 2535 c-16 -16 -28 -33 -26 -37 1 -4 -3 -8 -9 -8 -5 0 -8 -4 -4
-10 5 -8 -86 -134 -526 -730 -63 -85 -132 -179 -153 -207 l-38 -53 106 0 106
0 103 138 c56 76 137 185 179 243 186 252 308 412 308 403 1 -5 8 5 17 21 23
44 163 235 172 235 4 0 8 7 8 15 0 8 -7 15 -16 15 -9 0 -57 2 -107 3 -89 2
-92 1 -120 -28z"/>
<path d="M5139 2011 c-116 -17 -183 -102 -214 -270 -37 -199 13 -273 184 -273
92 0 140 18 193 69 41 40 60 85 82 195 31 152 16 222 -54 258 -42 21 -127 31
-191 21z m72 -141 c22 -12 24 -46 9 -136 -19 -106 -38 -134 -93 -134 -50 0
-58 35 -37 161 18 103 60 141 121 109z"/>
<path d="M2571 1505 c-16 -112 -14 -305 5 -378 66 -256 269 -368 644 -354 174
7 279 30 400 89 166 82 301 252 374 470 25 73 56 204 56 234 0 12 -37 14 -233
14 l-234 0 -18 -86 c-32 -155 -107 -271 -198 -309 -53 -22 -144 -29 -195 -16
-103 28 -150 118 -138 267 3 44 9 95 12 112 l7 32 -236 0 -235 0 -11 -75z"/>
<path d="M4289 1371 c-69 -14 -125 -56 -153 -113 -28 -60 -57 -205 -57 -286 0
-97 48 -136 171 -136 122 -1 198 40 234 125 25 59 57 270 47 306 -14 49 -30
72 -61 88 -35 18 -131 27 -181 16z m96 -134 c14 -21 13 -34 -4 -131 -25 -134
-39 -156 -101 -156 -66 0 -75 22 -54 133 21 112 32 144 57 162 33 23 84 19
102 -8z"/>
<path d="M4635 1348 c-16 -67 -91 -494 -88 -500 2 -5 33 -8 68 -8 l64 0 10 53
c5 28 14 72 18 97 l9 45 101 3 100 3 7 37 c12 75 16 72 -90 72 l-97 0 7 47 c3
25 7 48 9 49 1 1 57 6 123 10 l121 7 10 53 10 54 -189 0 c-186 0 -188 0 -193
-22z"/>
<path d="M5056 1283 c-48 -258 -76 -416 -76 -429 0 -12 14 -14 67 -12 l68 3
16 88 c9 48 19 91 23 94 3 3 48 6 100 6 l95 0 11 49 c5 27 10 53 10 58 0 6
-44 10 -100 10 -112 0 -102 -8 -85 73 l5 27 120 0 c65 0 121 3 123 8 3 4 8 31
12 60 l7 52 -190 0 -190 0 -16 -87z"/>
<path d="M3167 603 c-14 -14 -6 -38 21 -61 l27 -23 -27 4 c-29 4 -40 -16 -15
-26 7 -3 4 -6 -6 -6 -10 -1 -15 -5 -12 -11 8 -14 712 -14 720 0 4 6 -8 10 -30
10 -33 0 -35 1 -21 16 19 18 21 75 4 92 -44 44 -94 -42 -51 -90 15 -17 14 -18
-37 -18 -52 0 -53 0 -35 20 21 23 14 47 -17 60 l-23 9 23 0 c35 1 28 31 -8 31
-27 0 -30 -3 -30 -30 0 -23 4 -30 20 -30 11 0 20 -7 20 -15 0 -9 -9 -15 -25
-15 -26 0 -34 -15 -12 -23 6 -3 -94 -6 -223 -6 -164 0 -230 3 -217 10 23 14
22 46 -3 59 -23 12 -27 35 -5 26 9 -3 15 0 15 9 0 15 -40 21 -53 8z"/>
<path d="M5625 384 c-330 -56 -967 -166 -1415 -243 l-815 -139 1433 -1 1432
-1 0 245 c0 227 -1 245 -17 244 -10 -1 -288 -48 -618 -105z"/>
</g>
</svg>
